<?xml version="1.0" encoding="UTF-8" standalone="no"?>
<!-- Created with Inkscape (http://www.inkscape.org/) -->

<svg
   width="148.08295mm"
   height="58.422611mm"
   viewBox="0 0 148.08295 58.422611"
   version="1.1"
   id="svg5"
   inkscape:version="1.1.2 (1:1.1+202202050950+0a00cf5339)"
   sodipodi:docname="drawing.svg"
   xmlns:inkscape="http://www.inkscape.org/namespaces/inkscape"
   xmlns:sodipodi="http://sodipodi.sourceforge.net/DTD/sodipodi-0.dtd"
   xmlns="http://www.w3.org/2000/svg"
   xmlns:svg="http://www.w3.org/2000/svg">
  <sodipodi:namedview
     id="namedview7"
     pagecolor="#ffffff"
     bordercolor="#666666"
     borderopacity="1.0"
     inkscape:pageshadow="2"
     inkscape:pageopacity="0.0"
     inkscape:pagecheckerboard="false"
     inkscape:document-units="mm"
     showgrid="false"
     fit-margin-top="0"
     fit-margin-left="0"
     fit-margin-right="0"
     fit-margin-bottom="0"
     showborder="false"
     inkscape:zoom="0.47393378"
     inkscape:cx="325.99491"
     inkscape:cy="93.894974"
     inkscape:window-width="1302"
     inkscape:window-height="704"
     inkscape:window-x="64"
     inkscape:window-y="27"
     inkscape:window-maximized="1"
     inkscape:current-layer="layer1" />
  <defs
     id="defs2" />
  <g
     inkscape:label="Layer 1"
     inkscape:groupmode="layer"
     id="layer1"
     transform="translate(-19.069908,-123.92724)">
    <path
       id="rect846"
       style="fill:#ffffff;fill-opacity:0.99;stroke:none;stroke-width:0.811001;stroke-opacity:1"
       d="m 167.15285,167.31322 c -0.10923,0.0149 -0.21774,0.0289 -0.33176,0.0496 -0.32572,0.0591 -0.67042,0.14106 -1.03353,0.24029 -0.36311,0.0992 -0.74461,0.21583 -1.14257,0.34469 -0.39795,0.12885 -0.81257,0.27006 -1.24282,0.41806 -0.43024,0.14799 -0.87583,0.30274 -1.33583,0.4594 -0.46,0.15667 -0.93443,0.3154 -1.42162,0.47026 -0.48719,0.15486 -0.98729,0.30596 -1.49913,0.44855 -0.51184,0.14258 -1.03548,0.27653 -1.56942,0.39636 -0.26697,0.0599 -0.5362,0.1162 -0.80822,0.16846 -0.27201,0.0523 -0.54697,0.10036 -0.82372,0.14366 -0.27674,0.0433 -0.55548,0.0817 -0.83664,0.11472 -0.28116,0.033 -0.56431,0.0607 -0.84956,0.0822 -0.28525,0.0215 -0.57243,0.0369 -0.86145,0.0455 -0.28902,0.009 -0.57982,0.0103 -0.87229,0.005 -0.29248,-0.006 -0.58703,-0.0186 -0.88264,-0.0398 -0.29561,-0.0211 -0.59247,-0.0504 -0.8909,-0.0884 -0.29843,-0.038 -0.59824,-0.0845 -0.89917,-0.14056 -0.30092,-0.0561 -0.60278,-0.12137 -0.90589,-0.19688 -0.3031,-0.0755 -0.60764,-0.1611 -0.9126,-0.25735 -0.30497,-0.0962 -0.61075,-0.20312 -0.91726,-0.32143 -0.30651,-0.1183 -0.61366,-0.24797 -0.92139,-0.38964 -0.30773,-0.14167 -0.61585,-0.29564 -0.92449,-0.46199 -0.30864,-0.16633 -0.61785,-0.34511 -0.92708,-0.53743 -0.30922,-0.19232 -0.61861,-0.39793 -0.92811,-0.61753 -0.58134,-0.41251 -1.1524,-0.80907 -1.71359,-1.19011 -0.56118,-0.38105 -1.11264,-0.74661 -1.65416,-1.09709 -0.54152,-0.35048 -1.0729,-0.68585 -1.59525,-1.00666 -0.52235,-0.3208 -1.03524,-0.6273 -1.53892,-0.91932 -0.50369,-0.29203 -0.99812,-0.56993 -1.48363,-0.83406 -0.48552,-0.26413 -0.96256,-0.51425 -1.43041,-0.75138 -0.46784,-0.23713 -0.9265,-0.46128 -1.37718,-0.67231 -0.45067,-0.21102 -0.89305,-0.40899 -1.32704,-0.59479 -0.43401,-0.18581 -0.85962,-0.35942 -1.27745,-0.5209 -0.41782,-0.16148 -0.82775,-0.31103 -1.2299,-0.44907 -0.40214,-0.13804 -0.79694,-0.26432 -1.1839,-0.37982 -0.38697,-0.1155 -0.76615,-0.21983 -1.13844,-0.31368 -0.37228,-0.0939 -0.73743,-0.17754 -1.09553,-0.25063 -0.35811,-0.0731 -0.70926,-0.13591 -1.05369,-0.18913 -0.34442,-0.0532 -0.68213,-0.0965 -1.01337,-0.13074 -0.33124,-0.0342 -0.65607,-0.0593 -0.97462,-0.0754 -0.31855,-0.0162 -0.63105,-0.0233 -0.93741,-0.0222 -0.30637,0.001 -0.60656,0.01 -0.90124,0.0274 -0.29467,0.0174 -0.58365,0.0427 -0.86713,0.0755 -0.28348,0.0328 -0.56127,0.0731 -0.83405,0.1204 -0.2728,0.0473 -0.54046,0.10136 -0.80306,0.16227 -0.26259,0.0609 -0.52018,0.1284 -0.77308,0.20205 -0.2529,0.0737 -0.50147,0.15376 -0.74517,0.23926 -0.2437,0.0855 -0.48278,0.1764 -0.71779,0.27285 -0.235,0.0964 -0.46566,0.19838 -0.69246,0.30489 -0.2268,0.10652 -0.44959,0.21763 -0.66869,0.33332 -0.2191,0.11569 -0.43458,0.23621 -0.64648,0.36018 -0.21189,0.12398 -0.42009,0.25156 -0.62528,0.38292 -0.20519,0.13137 -0.40718,0.26625 -0.60617,0.40412 -0.19898,0.13786 -0.39532,0.27872 -0.58859,0.42219 -0.38655,0.28694 -0.76191,0.58429 -1.12861,0.88832 -0.3667,0.30402 -0.72455,0.61465 -1.07539,0.92863 -0.35084,0.31397 -0.69456,0.63146 -1.03353,0.94826 -0.67794,0.63359 -1.33619,1.26548 -1.99058,1.86758 -0.32719,0.30105 -0.65353,0.59447 -0.98081,0.87695 -0.32729,0.28248 -0.65566,0.55403 -0.98702,0.8108 -0.16568,0.12839 -0.33227,0.253 -0.49971,0.37363 -0.16745,0.12062 -0.33569,0.23736 -0.5054,0.34933 -0.16971,0.11197 -0.34067,0.21951 -0.51315,0.32194 -0.17247,0.10243 -0.3467,0.19947 -0.52245,0.29146 -0.17574,0.092 -0.35328,0.17875 -0.53278,0.25941 -0.1795,0.0807 -0.36091,0.15532 -0.54467,0.22376 -0.18376,0.0684 -0.36959,0.13071 -0.55811,0.18604 -0.18851,0.0553 -0.37983,0.10388 -0.5736,0.14521 -0.19377,0.0413 -0.3901,0.0754 -0.58963,0.1018 -0.19953,0.0264 -0.40193,0.0452 -0.60772,0.0558 -0.20578,0.0106 -0.41482,0.0133 -0.62735,0.007 -0.21253,-0.006 -0.42876,-0.0203 -0.64854,-0.0439 -0.21978,-0.0236 -0.44323,-0.0561 -0.67076,-0.0982 -0.22753,-0.0421 -0.45875,-0.0936 -0.69453,-0.15503 -0.23577,-0.0614 -0.47585,-0.13282 -0.72037,-0.21446 -0.24452,-0.0816 -0.49348,-0.17369 -0.74724,-0.27647 -0.25376,-0.10277 -0.51267,-0.21626 -0.77618,-0.34106 -0.2635,-0.1248 -0.53189,-0.26105 -0.80563,-0.40876 -0.273749,-0.14771 -0.552679,-0.30701 -0.837159,-0.47853 -0.28449,-0.17151 -0.57451,-0.35517 -0.87023,-0.55138 -0.87156,-0.5783 -1.72927,-1.13071 -2.57401,-1.65778 -0.84473,-0.52707 -1.67636,-1.02894 -2.49494,-1.50637 -0.81857,-0.47743 -1.62434,-0.93021 -2.41742,-1.35961 -0.79308,-0.4294 -1.57372,-0.83504 -2.34197,-1.21801 -0.768246,-0.38297 -1.523986,-0.74346 -2.268073,-1.08159 -0.74409,-0.33813 -1.476174,-0.65388 -2.196767,-0.94878 -0.720592,-0.29489 -1.429755,-0.56891 -2.127517,-0.82217 -0.697762,-0.25326 -1.384226,-0.48596 -2.059823,-0.69918 -0.675598,-0.21323 -1.340612,-0.40658 -1.99471,-0.58136 -0.654098,-0.17479 -1.297368,-0.33076 -1.930633,-0.46871 -0.633261,-0.13794 -1.25604,-0.25799 -1.869135,-0.3607 -0.613096,-0.10271 -1.216634,-0.18827 -1.810227,-0.25735 -0.593592,-0.0691 -1.177591,-0.12161 -1.752346,-0.15864 -0.574757,-0.037 -1.139952,-0.0585 -1.696537,-0.0651 -0.556586,-0.007 -1.104231,0.002 -1.643311,0.0238 -0.539081,0.0222 -1.069909,0.0585 -1.592152,0.108 -0.522242,0.0495 -1.035957,0.11245 -1.542023,0.18759 -0.506069,0.0751 -1.00444,0.1623 -1.494999,0.26148 -0.490561,0.0992 -0.973291,0.21014 -1.449009,0.33176 -0.475718,0.12162 -0.944573,0.25389 -1.406115,0.39636 -0.461542,0.14247 -0.916226,0.29511 -1.364258,0.45682 -0.448032,0.16171 -0.88928,0.33276 -1.324467,0.51211 -0.435187,0.17936 -0.864251,0.36736 -1.287259,0.56276 -0.42301,0.1954 -0.840107,0.39838 -1.251603,0.60823 -0.411496,0.20985 -0.817367,0.42636 -1.218015,0.64906 -0.400648,0.22269 -0.796023,0.45128 -1.186489,0.68523 -0.390467,0.23394 -0.776084,0.47316 -1.157037,0.71675 -0.380952,0.24359 -0.757028,0.49146 -1.12913,0.74311 -0.372099,0.25164 -0.739891,0.50723 -1.103807,0.76532 -0.363919,0.2581 -0.724157,0.51892 -1.080556,0.78187 -0.712795,0.52589 -1.410827,1.06007 -2.097545,1.59577 -0.686718,0.53569 -1.361819,1.07287 -2.027783,1.60558 -0.665967,0.53271 -1.322985,1.06076 -1.973524,1.57769 -0.650539,0.51692 -1.294844,1.02267 -1.935282,1.51101 -0.32022,0.24418 -0.639389,0.48419 -0.958082,0.71882 -0.318691,0.23463 -0.63663,0.46381 -0.954464,0.6873 -0.31783,0.22349 -0.635793,0.44089 -0.953428,0.65164 -0.317638,0.21074 -0.635323,0.41493 -0.953432,0.61133 -0.318105,0.19641 -0.636254,0.38539 -0.955497,0.56586 -0.319244,0.18046 -0.639617,0.35229 -0.960665,0.51521 -0.321046,0.16292 -0.642835,0.31666 -0.966349,0.46044 -0.323514,0.14378 -0.648485,0.27797 -0.975135,0.40101 -0.326646,0.12304 -0.655021,0.23519 -0.985469,0.33589 -0.330446,0.10071 -0.662959,0.18989 -0.997871,0.26666 -0.334915,0.0768 -0.672296,0.141 -1.012341,0.19223 -0.340045,0.0512 -0.683038,0.0891 -1.028877,0.11317 -0.345842,0.0241 -0.694661,0.0346 -1.046967,0.03 -0.352303,-0.005 -0.707684,-0.0245 -1.067117,-0.0594 -0.06459,-0.006 -0.131019,-0.0201 -0.195853,-0.0274 v 6.36499 H 167.15285 Z" />
    <path
       id="path2089"
       style="fill:#2196f3;fill-opacity:0.99;stroke:none;stroke-width:0.811001;stroke-opacity:0.99"
       d="m 19.069908,123.92738 v 52.05729 c 0.06483,0.007 0.13126,0.0211 0.195853,0.0274 0.359434,0.035 0.714814,0.0548 1.067117,0.0594 0.352306,0.005 0.701125,-0.006 1.046967,-0.03 0.34584,-0.0241 0.688832,-0.0619 1.028877,-0.11317 0.340045,-0.0512 0.677426,-0.11547 1.012341,-0.19224 0.334912,-0.0768 0.667425,-0.16595 0.997871,-0.26665 0.330449,-0.1007 0.658823,-0.21285 0.98547,-0.3359 0.326649,-0.12304 0.651621,-0.25723 0.975135,-0.40101 0.323514,-0.14378 0.645303,-0.29751 0.966348,-0.46043 0.321048,-0.16293 0.641421,-0.33476 0.960665,-0.51522 0.319244,-0.18046 0.637392,-0.36945 0.955498,-0.56586 0.318108,-0.1964 0.635793,-0.40058 0.953431,-0.61133 0.317635,-0.21074 0.635598,-0.42815 0.953429,-0.65164 0.317833,-0.22348 0.635772,-0.45266 0.954463,-0.68729 0.318693,-0.23463 0.637863,-0.47465 0.958083,-0.71882 0.640437,-0.48835 1.284742,-0.9941 1.935281,-1.51102 0.650539,-0.51692 1.307558,-1.04497 1.973525,-1.57768 0.665964,-0.53271 1.341064,-1.06989 2.027782,-1.60559 0.686718,-0.53569 1.38475,-1.06988 2.097545,-1.59577 0.356399,-0.26294 0.716637,-0.52377 1.080556,-0.78186 0.363916,-0.25809 0.731708,-0.51369 1.103807,-0.76533 0.372102,-0.25164 0.748178,-0.49951 1.129131,-0.74311 0.380952,-0.24359 0.766569,-0.48281 1.157036,-0.71675 0.390467,-0.23394 0.785841,-0.46253 1.186489,-0.68523 0.400648,-0.2227 0.806519,-0.4392 1.218015,-0.64906 0.411496,-0.20984 0.828593,-0.41282 1.251604,-0.60822 0.423007,-0.19541 0.852072,-0.38341 1.287258,-0.56276 0.435187,-0.17936 0.876435,-0.3504 1.324467,-0.51211 0.448033,-0.16172 0.902716,-0.31436 1.364258,-0.45683 0.461542,-0.14246 0.930397,-0.27473 1.406115,-0.39635 0.475718,-0.12163 0.958448,-0.23259 1.449009,-0.33177 0.490559,-0.0992 0.988931,-0.18635 1.494999,-0.26148 0.506066,-0.0751 1.019781,-0.13809 1.542024,-0.18759 0.522242,-0.0495 1.05307,-0.0857 1.592151,-0.108 0.539081,-0.0222 1.086726,-0.0304 1.643311,-0.0238 0.556586,0.007 1.121781,0.0281 1.696538,0.0651 0.574754,0.037 1.158753,0.0896 1.752346,0.15865 0.593592,0.0691 1.197131,0.15464 1.810226,0.25735 0.613095,0.10271 1.235874,0.22275 1.869135,0.3607 0.633265,0.13795 1.276536,0.29392 1.930633,0.4687 0.654098,0.17479 1.319112,0.36814 1.99471,0.58136 0.675598,0.21323 1.362062,0.44592 2.059823,0.69919 0.697762,0.25326 1.406925,0.52727 2.127518,0.82217 0.720592,0.29489 1.452676,0.61065 2.196766,0.94878 0.744091,0.33813 1.499825,0.69862 2.26808,1.08159 0.76825,0.38296 1.54889,0.78861 2.34198,1.21801 0.79308,0.4294 1.59884,0.88217 2.41742,1.3596 0.81857,0.47744 1.6502,0.97931 2.49494,1.50637 0.84473,0.52707 1.70244,1.07948 2.574,1.65778 0.29572,0.19622 0.58575,0.37987 0.87023,0.55139 0.28448,0.17152 0.56341,0.33081 0.83716,0.47853 0.27374,0.1477 0.54213,0.28396 0.80563,0.40876 0.26351,0.12479 0.52242,0.23829 0.77618,0.34106 0.25377,0.10277 0.50273,0.19483 0.74725,0.27647 0.24451,0.0816 0.48459,0.15306 0.72036,0.21446 0.23578,0.0614 0.46701,0.11298 0.69453,0.15503 0.22753,0.0421 0.45098,0.0746 0.67077,0.0982 0.21978,0.0236 0.436,0.0379 0.64853,0.0439 0.21254,0.006 0.42158,0.003 0.62736,-0.007 0.20578,-0.0106 0.40818,-0.0294 0.60771,-0.0558 0.199526,-0.0264 0.395856,-0.0605 0.589626,-0.10181 0.19377,-0.0413 0.38509,-0.0899 0.57361,-0.14521 0.18852,-0.0553 0.37435,-0.11759 0.5581,-0.18603 0.18376,-0.0684 0.36517,-0.1431 0.54467,-0.22376 0.1795,-0.0807 0.35705,-0.16742 0.53279,-0.25942 0.17574,-0.092 0.34997,-0.18902 0.52244,-0.29145 0.17248,-0.10243 0.34344,-0.20997 0.51315,-0.32195 0.16972,-0.11197 0.33795,-0.2287 0.5054,-0.34933 0.16745,-0.12063 0.33403,-0.24523 0.49971,-0.37362 0.33136,-0.25678 0.65974,-0.52832 0.98702,-0.8108 0.32728,-0.28248 0.65362,-0.5759 0.98082,-0.87695 0.65438,-0.6021 1.31263,-1.23399 1.99057,-1.86759 0.33898,-0.3168 0.68269,-0.63428 1.03353,-0.94826 0.35084,-0.31398 0.70869,-0.6246 1.07539,-0.92863 0.3667,-0.30402 0.74207,-0.60137 1.12861,-0.88831 0.19327,-0.14347 0.38961,-0.28434 0.5886,-0.4222 0.19898,-0.13786 0.40097,-0.27274 0.60616,-0.40411 0.20519,-0.13136 0.41339,-0.25895 0.62529,-0.38292 0.21189,-0.12397 0.42737,-0.24449 0.64647,-0.36019 0.2191,-0.11569 0.44189,-0.22679 0.66869,-0.33331 0.2268,-0.10652 0.45746,-0.20844 0.69247,-0.30489 0.235,-0.0964 0.47408,-0.18735 0.71778,-0.27285 0.2437,-0.0855 0.49227,-0.16561 0.74517,-0.23926 0.2529,-0.0737 0.51049,-0.14115 0.77308,-0.20206 0.2626,-0.0609 0.53027,-0.11498 0.80306,-0.16226 0.27279,-0.0473 0.55057,-0.0876 0.83405,-0.12041 0.28349,-0.0328 0.57246,-0.0581 0.86713,-0.0754 0.29468,-0.0174 0.59488,-0.0264 0.90124,-0.0274 0.30636,-10e-4 0.61886,0.006 0.93741,0.0222 0.31855,0.0162 0.64338,0.0412 0.97462,0.0755 0.33124,0.0342 0.66895,0.0775 1.01337,0.13074 0.34443,0.0532 0.69558,0.11605 1.05369,0.18914 0.3581,0.0731 0.72325,0.15678 1.09554,0.25063 0.37229,0.0939 0.75146,0.19817 1.13843,0.31367 0.38697,0.1155 0.78176,0.24178 1.1839,0.37983 0.40215,0.13804 0.81208,0.28759 1.2299,0.44906 0.41783,0.16148 0.84345,0.3351 1.27745,0.5209 0.434,0.18581 0.87637,0.38378 1.32705,0.5948 0.45067,0.21102 0.90933,0.43518 1.37717,0.67231 0.46785,0.23713 0.94489,0.48724 1.43041,0.75137 0.48551,0.26414 0.97994,0.54204 1.48363,0.83406 0.50368,0.29202 1.01657,0.59852 1.53892,0.91933 0.52235,0.3208 1.05373,0.65617 1.59525,1.00665 0.54152,0.35048 1.09299,0.71605 1.65417,1.09709 0.56118,0.38105 1.13224,0.77761 1.71359,1.19011 0.30949,0.21961 0.61888,0.42522 0.9281,0.61753 0.30923,0.19232 0.61844,0.3711 0.92708,0.53744 0.30864,0.16634 0.61676,0.32032 0.92449,0.46199 0.30774,0.14167 0.61488,0.27133 0.92139,0.38964 0.30651,0.1183 0.61229,0.22517 0.91726,0.32143 0.30497,0.0963 0.6095,0.18183 0.91261,0.25734 0.3031,0.0755 0.60496,0.14081 0.90588,0.19689 0.30093,0.0561 0.60075,0.10261 0.89917,0.14056 0.29843,0.0379 0.59529,0.0672 0.8909,0.0884 0.29562,0.0211 0.59016,0.0342 0.88264,0.0398 0.29247,0.006 0.58328,0.004 0.8723,-0.005 0.28902,-0.009 0.57619,-0.024 0.86144,-0.0455 0.28525,-0.0215 0.56841,-0.0491 0.84956,-0.0822 0.28116,-0.033 0.5599,-0.0714 0.83664,-0.11472 0.27675,-0.0433 0.55171,-0.0914 0.82373,-0.14366 0.27201,-0.0523 0.54125,-0.10855 0.80822,-0.16847 0.53394,-0.11983 1.05757,-0.25377 1.56941,-0.39636 0.51184,-0.14258 1.01194,-0.29369 1.49913,-0.44855 0.48719,-0.15486 0.96163,-0.31359 1.42162,-0.47025 0.46,-0.15667 0.90559,-0.31141 1.33584,-0.45941 0.43025,-0.14799 0.84486,-0.28921 1.24282,-0.41806 0.39795,-0.12885 0.77945,-0.24544 1.14256,-0.34468 0.36311,-0.0992 0.70781,-0.18115 1.03353,-0.2403 0.11402,-0.0207 0.22253,-0.0347 0.33176,-0.0496 v -43.38598 z" />
  </g>
</svg>
